<svg xmlns="http://www.w3.org/2000/svg" version="1.1" xmlns:xlink="http://www.w3.org/1999/xlink" xmlns:svgjs="http://svgjs.dev/svgjs" width="1440" height="560" preserveAspectRatio="none" viewBox="0 0 1440 560"><g mask="url(&quot;#SvgjsMask1006&quot;)" fill="none"><rect width="1440" height="560" x="0" y="0" fill="rgba(88, 28, 135, 1)"></rect><path d="M60.62 255.65L119.51 289.65L119.51 357.65L60.62 391.65L1.73 357.65L1.73 289.65zM178.4 51.65L237.3 85.65L237.3 153.65L178.4 187.65L119.51 153.65L119.51 85.65zM119.51 153.65L178.4 187.65L178.4 255.65L119.51 289.65L60.62 255.65L60.62 187.65zM178.4 459.65L237.3 493.65L237.3 561.65L178.4 595.65L119.51 561.65L119.51 493.65zM237.3 357.65L296.19 391.65L296.19 459.65L237.3 493.65L178.4 459.65L178.4 391.65zM296.19 459.65L355.08 493.65L355.08 561.65L296.19 595.65L237.3 561.65L237.3 493.65zM355.08 -50.35L413.97 -16.35L413.97 51.65L355.08 85.65L296.19 51.65L296.19 -16.35zM413.97 255.65L472.86 289.65L472.86 357.65L413.97 391.65L355.08 357.65L355.08 289.65zM355.08 357.65L413.97 391.65L413.97 459.65L355.08 493.65L296.19 459.65L296.19 391.65zM472.86 357.65L531.75 391.65L531.75 459.65L472.86 493.65L413.97 459.65L413.97 391.65zM590.64 -50.35L649.54 -16.35L649.54 51.65L590.64 85.65L531.75 51.65L531.75 -16.35zM590.64 357.65L649.54 391.65L649.54 459.65L590.64 493.65L531.75 459.65L531.75 391.65zM649.54 459.65L708.43 493.65L708.43 561.65L649.54 595.65L590.64 561.65L590.64 493.65zM708.43 -50.35L767.32 -16.35L767.32 51.65L708.43 85.65L649.54 51.65L649.54 -16.35zM767.32 459.65L826.21 493.65L826.21 561.65L767.32 595.65L708.43 561.65L708.43 493.65zM885.1 255.65L943.99 289.65L943.99 357.65L885.1 391.65L826.21 357.65L826.21 289.65zM826.21 357.65L885.1 391.65L885.1 459.65L826.21 493.65L767.32 459.65L767.32 391.65zM885.1 459.65L943.99 493.65L943.99 561.65L885.1 595.65L826.21 561.65L826.21 493.65zM943.99 -50.35L1002.88 -16.35L1002.88 51.65L943.99 85.65L885.1 51.65L885.1 -16.35zM1002.88 51.65L1061.78 85.65L1061.78 153.65L1002.88 187.65L943.99 153.65L943.99 85.65zM943.99 153.65L1002.88 187.65L1002.88 255.65L943.99 289.65L885.1 255.65L885.1 187.65zM1002.88 255.65L1061.78 289.65L1061.78 357.65L1002.88 391.65L943.99 357.65L943.99 289.65zM943.99 357.65L1002.88 391.65L1002.88 459.65L943.99 493.65L885.1 459.65L885.1 391.65zM1002.88 459.65L1061.78 493.65L1061.78 561.65L1002.88 595.65L943.99 561.65L943.99 493.65zM1120.67 51.65L1179.56 85.65L1179.56 153.65L1120.67 187.65L1061.78 153.65L1061.78 85.65zM1120.67 255.65L1179.56 289.65L1179.56 357.65L1120.67 391.65L1061.78 357.65L1061.78 289.65zM1179.56 357.65L1238.45 391.65L1238.45 459.65L1179.56 493.65L1120.67 459.65L1120.67 391.65zM1297.34 -50.35L1356.23 -16.35L1356.23 51.65L1297.34 85.65L1238.45 51.65L1238.45 -16.35zM1356.23 255.65L1415.12 289.65L1415.12 357.65L1356.23 391.65L1297.34 357.65L1297.34 289.65zM1415.12 -50.35L1474.01 -16.35L1474.01 51.65L1415.12 85.65L1356.23 51.65L1356.23 -16.35zM1415.12 153.65L1474.01 187.65L1474.01 255.65L1415.12 289.65L1356.23 255.65L1356.23 187.65zM1474.01 255.65L1532.91 289.65L1532.91 357.65L1474.01 391.65L1415.12 357.65L1415.12 289.65zM1415.12 357.65L1474.01 391.65L1474.01 459.65L1415.12 493.65L1356.23 459.65L1356.23 391.65zM1474.01 459.65L1532.91 493.65L1532.91 561.65L1474.01 595.65L1415.12 561.65L1415.12 493.65z" stroke="rgba(126, 34, 206, 1)" stroke-width="2"></path><path d="M53.82 255.65 a6.8 6.8 0 1 0 13.6 0 a6.8 6.8 0 1 0 -13.6 0zM112.71 289.65 a6.8 6.8 0 1 0 13.6 0 a6.8 6.8 0 1 0 -13.6 0zM112.71 357.65 a6.8 6.8 0 1 0 13.6 0 a6.8 6.8 0 1 0 -13.6 0zM53.82 391.65 a6.8 6.8 0 1 0 13.6 0 a6.8 6.8 0 1 0 -13.6 0zM-5.07 357.65 a6.8 6.8 0 1 0 13.6 0 a6.8 6.8 0 1 0 -13.6 0zM-5.07 289.65 a6.8 6.8 0 1 0 13.6 0 a6.8 6.8 0 1 0 -13.6 0zM171.6 51.65 a6.8 6.8 0 1 0 13.6 0 a6.8 6.8 0 1 0 -13.6 0zM230.5 85.65 a6.8 6.8 0 1 0 13.6 0 a6.8 6.8 0 1 0 -13.6 0zM230.5 153.65 a6.8 6.8 0 1 0 13.6 0 a6.8 6.8 0 1 0 -13.6 0zM171.6 187.65 a6.8 6.8 0 1 0 13.6 0 a6.8 6.8 0 1 0 -13.6 0zM112.71 153.65 a6.8 6.8 0 1 0 13.6 0 a6.8 6.8 0 1 0 -13.6 0zM112.71 85.65 a6.8 6.8 0 1 0 13.6 0 a6.8 6.8 0 1 0 -13.6 0zM171.6 255.65 a6.8 6.8 0 1 0 13.6 0 a6.8 6.8 0 1 0 -13.6 0zM53.82 187.65 a6.8 6.8 0 1 0 13.6 0 a6.8 6.8 0 1 0 -13.6 0zM171.6 459.65 a6.8 6.8 0 1 0 13.6 0 a6.8 6.8 0 1 0 -13.6 0zM230.5 493.65 a6.8 6.8 0 1 0 13.6 0 a6.8 6.8 0 1 0 -13.6 0zM230.5 561.65 a6.8 6.8 0 1 0 13.6 0 a6.8 6.8 0 1 0 -13.6 0zM171.6 595.65 a6.8 6.8 0 1 0 13.6 0 a6.8 6.8 0 1 0 -13.6 0zM112.71 561.65 a6.8 6.8 0 1 0 13.6 0 a6.8 6.8 0 1 0 -13.6 0zM112.71 493.65 a6.8 6.8 0 1 0 13.6 0 a6.8 6.8 0 1 0 -13.6 0zM230.5 357.65 a6.8 6.8 0 1 0 13.6 0 a6.8 6.8 0 1 0 -13.6 0zM289.39 391.65 a6.8 6.8 0 1 0 13.6 0 a6.8 6.8 0 1 0 -13.6 0zM289.39 459.65 a6.8 6.8 0 1 0 13.6 0 a6.8 6.8 0 1 0 -13.6 0zM171.6 391.65 a6.8 6.8 0 1 0 13.6 0 a6.8 6.8 0 1 0 -13.6 0zM348.28 493.65 a6.8 6.8 0 1 0 13.6 0 a6.8 6.8 0 1 0 -13.6 0zM348.28 561.65 a6.8 6.8 0 1 0 13.6 0 a6.8 6.8 0 1 0 -13.6 0zM289.39 595.65 a6.8 6.8 0 1 0 13.6 0 a6.8 6.8 0 1 0 -13.6 0zM348.28 -50.35 a6.8 6.8 0 1 0 13.6 0 a6.8 6.8 0 1 0 -13.6 0zM407.17 -16.35 a6.8 6.8 0 1 0 13.6 0 a6.8 6.8 0 1 0 -13.6 0zM407.17 51.65 a6.8 6.8 0 1 0 13.6 0 a6.8 6.8 0 1 0 -13.6 0zM348.28 85.65 a6.8 6.8 0 1 0 13.6 0 a6.8 6.8 0 1 0 -13.6 0zM289.39 51.65 a6.8 6.8 0 1 0 13.6 0 a6.8 6.8 0 1 0 -13.6 0zM289.39 -16.35 a6.8 6.8 0 1 0 13.6 0 a6.8 6.8 0 1 0 -13.6 0zM407.17 255.65 a6.8 6.8 0 1 0 13.6 0 a6.8 6.8 0 1 0 -13.6 0zM466.06 289.65 a6.8 6.8 0 1 0 13.6 0 a6.8 6.8 0 1 0 -13.6 0zM466.06 357.65 a6.8 6.8 0 1 0 13.6 0 a6.8 6.8 0 1 0 -13.6 0zM407.17 391.65 a6.8 6.8 0 1 0 13.6 0 a6.8 6.8 0 1 0 -13.6 0zM348.28 357.65 a6.8 6.8 0 1 0 13.6 0 a6.8 6.8 0 1 0 -13.6 0zM348.28 289.65 a6.8 6.8 0 1 0 13.6 0 a6.8 6.8 0 1 0 -13.6 0zM407.17 459.65 a6.8 6.8 0 1 0 13.6 0 a6.8 6.8 0 1 0 -13.6 0zM524.95 391.65 a6.8 6.8 0 1 0 13.6 0 a6.8 6.8 0 1 0 -13.6 0zM524.95 459.65 a6.8 6.8 0 1 0 13.6 0 a6.8 6.8 0 1 0 -13.6 0zM466.06 493.65 a6.8 6.8 0 1 0 13.6 0 a6.8 6.8 0 1 0 -13.6 0zM583.84 -50.35 a6.8 6.8 0 1 0 13.6 0 a6.8 6.8 0 1 0 -13.6 0zM642.74 -16.35 a6.8 6.8 0 1 0 13.6 0 a6.8 6.8 0 1 0 -13.6 0zM642.74 51.65 a6.8 6.8 0 1 0 13.6 0 a6.8 6.8 0 1 0 -13.6 0zM583.84 85.65 a6.8 6.8 0 1 0 13.6 0 a6.8 6.8 0 1 0 -13.6 0zM524.95 51.65 a6.8 6.8 0 1 0 13.6 0 a6.8 6.8 0 1 0 -13.6 0zM524.95 -16.35 a6.8 6.8 0 1 0 13.6 0 a6.8 6.8 0 1 0 -13.6 0zM583.84 357.65 a6.8 6.8 0 1 0 13.6 0 a6.8 6.8 0 1 0 -13.6 0zM642.74 391.65 a6.8 6.8 0 1 0 13.6 0 a6.8 6.8 0 1 0 -13.6 0zM642.74 459.65 a6.8 6.8 0 1 0 13.6 0 a6.8 6.8 0 1 0 -13.6 0zM583.84 493.65 a6.8 6.8 0 1 0 13.6 0 a6.8 6.8 0 1 0 -13.6 0zM701.63 493.65 a6.8 6.8 0 1 0 13.6 0 a6.8 6.8 0 1 0 -13.6 0zM701.63 561.65 a6.8 6.8 0 1 0 13.6 0 a6.8 6.8 0 1 0 -13.6 0zM642.74 595.65 a6.8 6.8 0 1 0 13.6 0 a6.8 6.8 0 1 0 -13.6 0zM583.84 561.65 a6.8 6.8 0 1 0 13.6 0 a6.8 6.8 0 1 0 -13.6 0zM701.63 -50.35 a6.8 6.8 0 1 0 13.6 0 a6.8 6.8 0 1 0 -13.6 0zM760.52 -16.35 a6.8 6.8 0 1 0 13.6 0 a6.8 6.8 0 1 0 -13.6 0zM760.52 51.65 a6.8 6.8 0 1 0 13.6 0 a6.8 6.8 0 1 0 -13.6 0zM701.63 85.65 a6.8 6.8 0 1 0 13.6 0 a6.8 6.8 0 1 0 -13.6 0zM760.52 459.65 a6.8 6.8 0 1 0 13.6 0 a6.8 6.8 0 1 0 -13.6 0zM819.41 493.65 a6.8 6.8 0 1 0 13.6 0 a6.8 6.8 0 1 0 -13.6 0zM819.41 561.65 a6.8 6.8 0 1 0 13.6 0 a6.8 6.8 0 1 0 -13.6 0zM760.52 595.65 a6.8 6.8 0 1 0 13.6 0 a6.8 6.8 0 1 0 -13.6 0zM878.3 255.65 a6.8 6.8 0 1 0 13.6 0 a6.8 6.8 0 1 0 -13.6 0zM937.19 289.65 a6.8 6.8 0 1 0 13.6 0 a6.8 6.8 0 1 0 -13.6 0zM937.19 357.65 a6.8 6.8 0 1 0 13.6 0 a6.8 6.8 0 1 0 -13.6 0zM878.3 391.65 a6.8 6.8 0 1 0 13.6 0 a6.8 6.8 0 1 0 -13.6 0zM819.41 357.65 a6.8 6.8 0 1 0 13.6 0 a6.8 6.8 0 1 0 -13.6 0zM819.41 289.65 a6.8 6.8 0 1 0 13.6 0 a6.8 6.8 0 1 0 -13.6 0zM878.3 459.65 a6.8 6.8 0 1 0 13.6 0 a6.8 6.8 0 1 0 -13.6 0zM760.52 391.65 a6.8 6.8 0 1 0 13.6 0 a6.8 6.8 0 1 0 -13.6 0zM937.19 493.65 a6.8 6.8 0 1 0 13.6 0 a6.8 6.8 0 1 0 -13.6 0zM937.19 561.65 a6.8 6.8 0 1 0 13.6 0 a6.8 6.8 0 1 0 -13.6 0zM878.3 595.65 a6.8 6.8 0 1 0 13.6 0 a6.8 6.8 0 1 0 -13.6 0zM937.19 -50.35 a6.8 6.8 0 1 0 13.6 0 a6.8 6.8 0 1 0 -13.6 0zM996.08 -16.35 a6.8 6.8 0 1 0 13.6 0 a6.8 6.8 0 1 0 -13.6 0zM996.08 51.65 a6.8 6.8 0 1 0 13.6 0 a6.8 6.8 0 1 0 -13.6 0zM937.19 85.65 a6.8 6.8 0 1 0 13.6 0 a6.8 6.8 0 1 0 -13.6 0zM878.3 51.65 a6.8 6.8 0 1 0 13.6 0 a6.8 6.8 0 1 0 -13.6 0zM878.3 -16.35 a6.8 6.8 0 1 0 13.6 0 a6.8 6.8 0 1 0 -13.6 0zM1054.98 85.65 a6.8 6.8 0 1 0 13.6 0 a6.8 6.8 0 1 0 -13.6 0zM1054.98 153.65 a6.8 6.8 0 1 0 13.6 0 a6.8 6.8 0 1 0 -13.6 0zM996.08 187.65 a6.8 6.8 0 1 0 13.6 0 a6.8 6.8 0 1 0 -13.6 0zM937.19 153.65 a6.8 6.8 0 1 0 13.6 0 a6.8 6.8 0 1 0 -13.6 0zM996.08 255.65 a6.8 6.8 0 1 0 13.6 0 a6.8 6.8 0 1 0 -13.6 0zM878.3 187.65 a6.8 6.8 0 1 0 13.6 0 a6.8 6.8 0 1 0 -13.6 0zM1054.98 289.65 a6.8 6.8 0 1 0 13.6 0 a6.8 6.8 0 1 0 -13.6 0zM1054.98 357.65 a6.8 6.8 0 1 0 13.6 0 a6.8 6.8 0 1 0 -13.6 0zM996.08 391.65 a6.8 6.8 0 1 0 13.6 0 a6.8 6.8 0 1 0 -13.6 0zM996.08 459.65 a6.8 6.8 0 1 0 13.6 0 a6.8 6.8 0 1 0 -13.6 0zM1054.98 493.65 a6.8 6.8 0 1 0 13.6 0 a6.8 6.8 0 1 0 -13.6 0zM1054.98 561.65 a6.8 6.8 0 1 0 13.6 0 a6.8 6.8 0 1 0 -13.6 0zM996.08 595.65 a6.8 6.8 0 1 0 13.6 0 a6.8 6.8 0 1 0 -13.6 0zM1113.87 51.65 a6.8 6.8 0 1 0 13.6 0 a6.8 6.8 0 1 0 -13.6 0zM1172.76 85.65 a6.8 6.8 0 1 0 13.6 0 a6.8 6.8 0 1 0 -13.6 0zM1172.76 153.65 a6.8 6.8 0 1 0 13.6 0 a6.8 6.8 0 1 0 -13.6 0zM1113.87 187.65 a6.8 6.8 0 1 0 13.6 0 a6.8 6.8 0 1 0 -13.6 0zM1113.87 255.65 a6.8 6.8 0 1 0 13.6 0 a6.8 6.8 0 1 0 -13.6 0zM1172.76 289.65 a6.8 6.8 0 1 0 13.6 0 a6.8 6.8 0 1 0 -13.6 0zM1172.76 357.65 a6.8 6.8 0 1 0 13.6 0 a6.8 6.8 0 1 0 -13.6 0zM1113.87 391.65 a6.8 6.8 0 1 0 13.6 0 a6.8 6.8 0 1 0 -13.6 0zM1231.65 391.65 a6.8 6.8 0 1 0 13.6 0 a6.8 6.8 0 1 0 -13.6 0zM1231.65 459.65 a6.8 6.8 0 1 0 13.6 0 a6.8 6.8 0 1 0 -13.6 0zM1172.76 493.65 a6.8 6.8 0 1 0 13.6 0 a6.8 6.8 0 1 0 -13.6 0zM1113.87 459.65 a6.8 6.8 0 1 0 13.6 0 a6.8 6.8 0 1 0 -13.6 0zM1290.54 -50.35 a6.8 6.8 0 1 0 13.6 0 a6.8 6.8 0 1 0 -13.6 0zM1349.43 -16.35 a6.8 6.8 0 1 0 13.6 0 a6.8 6.8 0 1 0 -13.6 0zM1349.43 51.65 a6.8 6.8 0 1 0 13.6 0 a6.8 6.8 0 1 0 -13.6 0zM1290.54 85.65 a6.8 6.8 0 1 0 13.6 0 a6.8 6.8 0 1 0 -13.6 0zM1231.65 51.65 a6.8 6.8 0 1 0 13.6 0 a6.8 6.8 0 1 0 -13.6 0zM1231.65 -16.35 a6.8 6.8 0 1 0 13.6 0 a6.8 6.8 0 1 0 -13.6 0zM1349.43 255.65 a6.8 6.8 0 1 0 13.6 0 a6.8 6.8 0 1 0 -13.6 0zM1408.32 289.65 a6.8 6.8 0 1 0 13.6 0 a6.8 6.8 0 1 0 -13.6 0zM1408.32 357.65 a6.8 6.8 0 1 0 13.6 0 a6.8 6.8 0 1 0 -13.6 0zM1349.43 391.65 a6.8 6.8 0 1 0 13.6 0 a6.8 6.8 0 1 0 -13.6 0zM1290.54 357.65 a6.8 6.8 0 1 0 13.6 0 a6.8 6.8 0 1 0 -13.6 0zM1290.54 289.65 a6.8 6.8 0 1 0 13.6 0 a6.8 6.8 0 1 0 -13.6 0zM1408.32 -50.35 a6.8 6.8 0 1 0 13.6 0 a6.8 6.8 0 1 0 -13.6 0zM1467.21 -16.35 a6.8 6.8 0 1 0 13.6 0 a6.8 6.8 0 1 0 -13.6 0zM1467.21 51.65 a6.8 6.8 0 1 0 13.6 0 a6.8 6.8 0 1 0 -13.6 0zM1408.32 85.65 a6.8 6.8 0 1 0 13.6 0 a6.8 6.8 0 1 0 -13.6 0zM1408.32 153.65 a6.8 6.8 0 1 0 13.6 0 a6.8 6.8 0 1 0 -13.6 0zM1467.21 187.65 a6.8 6.8 0 1 0 13.6 0 a6.8 6.8 0 1 0 -13.6 0zM1467.21 255.65 a6.8 6.8 0 1 0 13.6 0 a6.8 6.8 0 1 0 -13.6 0zM1349.43 187.65 a6.8 6.8 0 1 0 13.6 0 a6.8 6.8 0 1 0 -13.6 0zM1526.11 289.65 a6.8 6.8 0 1 0 13.6 0 a6.8 6.8 0 1 0 -13.6 0zM1526.11 357.65 a6.8 6.8 0 1 0 13.6 0 a6.8 6.8 0 1 0 -13.6 0zM1467.21 391.65 a6.8 6.8 0 1 0 13.6 0 a6.8 6.8 0 1 0 -13.6 0zM1467.21 459.65 a6.8 6.8 0 1 0 13.6 0 a6.8 6.8 0 1 0 -13.6 0zM1408.32 493.65 a6.8 6.8 0 1 0 13.6 0 a6.8 6.8 0 1 0 -13.6 0zM1349.43 459.65 a6.8 6.8 0 1 0 13.6 0 a6.8 6.8 0 1 0 -13.6 0zM1526.11 493.65 a6.8 6.8 0 1 0 13.6 0 a6.8 6.8 0 1 0 -13.6 0zM1526.11 561.65 a6.8 6.8 0 1 0 13.6 0 a6.8 6.8 0 1 0 -13.6 0zM1467.21 595.65 a6.8 6.8 0 1 0 13.6 0 a6.8 6.8 0 1 0 -13.6 0zM1408.32 561.65 a6.8 6.8 0 1 0 13.6 0 a6.8 6.8 0 1 0 -13.6 0z" fill="rgba(126, 34, 206, 1)"></path><path d="M70.73 213.25L115.77 239.25L115.77 291.25L70.73 317.25L25.7 291.25L25.7 239.25zM25.7 291.25L70.73 317.25L70.73 369.25L25.7 395.25L-19.33 369.25L-19.33 317.25zM115.77 291.25L160.8 317.25L160.8 369.25L115.77 395.25L70.73 369.25L70.73 317.25zM115.77 447.25L160.8 473.25L160.8 525.25L115.77 551.25L70.73 525.25L70.73 473.25zM205.84 135.25L250.87 161.25L250.87 213.25L205.84 239.25L160.8 213.25L160.8 161.25zM250.87 369.25L295.91 395.25L295.91 447.25L250.87 473.25L205.84 447.25L205.84 395.25zM250.87 525.25L295.91 551.25L295.91 603.25L250.87 629.25L205.84 603.25L205.84 551.25zM340.94 57.25L385.98 83.25L385.98 135.25L340.94 161.25L295.91 135.25L295.91 83.25zM385.98 -20.75L431.01 5.25L431.01 57.25L385.98 83.25L340.94 57.25L340.94 5.25zM385.98 447.25L431.01 473.25L431.01 525.25L385.98 551.25L340.94 525.25L340.94 473.25zM431.01 525.25L476.05 551.25L476.05 603.25L431.01 629.25L385.98 603.25L385.98 551.25zM521.08 57.25L566.12 83.25L566.12 135.25L521.08 161.25L476.05 135.25L476.05 83.25zM521.08 525.25L566.12 551.25L566.12 603.25L521.08 629.25L476.05 603.25L476.05 551.25zM566.12 135.25L611.15 161.25L611.15 213.25L566.12 239.25L521.08 213.25L521.08 161.25zM566.12 291.25L611.15 317.25L611.15 369.25L566.12 395.25L521.08 369.25L521.08 317.25zM656.18 -20.75L701.22 5.25L701.22 57.25L656.18 83.25L611.15 57.25L611.15 5.25zM656.18 135.25L701.22 161.25L701.22 213.25L656.18 239.25L611.15 213.25L611.15 161.25zM701.22 213.25L746.25 239.25L746.25 291.25L701.22 317.25L656.18 291.25L656.18 239.25zM656.18 447.25L701.22 473.25L701.22 525.25L656.18 551.25L611.15 525.25L611.15 473.25zM701.22 525.25L746.25 551.25L746.25 603.25L701.22 629.25L656.18 603.25L656.18 551.25zM746.25 291.25L791.29 317.25L791.29 369.25L746.25 395.25L701.22 369.25L701.22 317.25zM791.29 525.25L836.32 551.25L836.32 603.25L791.29 629.25L746.25 603.25L746.25 551.25zM836.32 135.25L881.36 161.25L881.36 213.25L836.32 239.25L791.29 213.25L791.29 161.25zM881.36 525.25L926.39 551.25L926.39 603.25L881.36 629.25L836.32 603.25L836.32 551.25zM926.39 135.25L971.43 161.25L971.43 213.25L926.39 239.25L881.36 213.25L881.36 161.25zM971.43 369.25L1016.46 395.25L1016.46 447.25L971.43 473.25L926.39 447.25L926.39 395.25zM1016.46 135.25L1061.5 161.25L1061.5 213.25L1016.46 239.25L971.43 213.25L971.43 161.25zM1016.46 291.25L1061.5 317.25L1061.5 369.25L1016.46 395.25L971.43 369.25L971.43 317.25zM1106.53 -20.75L1151.56 5.25L1151.56 57.25L1106.53 83.25L1061.5 57.25L1061.5 5.25zM1106.53 135.25L1151.56 161.25L1151.56 213.25L1106.53 239.25L1061.5 213.25L1061.5 161.25zM1151.56 369.25L1196.6 395.25L1196.6 447.25L1151.56 473.25L1106.53 447.25L1106.53 395.25zM1151.56 525.25L1196.6 551.25L1196.6 603.25L1151.56 629.25L1106.53 603.25L1106.53 551.25zM1196.6 -20.75L1241.63 5.25L1241.63 57.25L1196.6 83.25L1151.57 57.25L1151.57 5.25zM1196.6 135.25L1241.63 161.25L1241.63 213.25L1196.6 239.25L1151.57 213.25L1151.57 161.25zM1196.6 447.25L1241.63 473.25L1241.63 525.25L1196.6 551.25L1151.57 525.25L1151.57 473.25zM1241.63 525.25L1286.67 551.25L1286.67 603.25L1241.63 629.25L1196.6 603.25L1196.6 551.25zM1286.67 135.25L1331.7 161.25L1331.7 213.25L1286.67 239.25L1241.63 213.25L1241.63 161.25zM1331.7 213.25L1376.74 239.25L1376.74 291.25L1331.7 317.25L1286.67 291.25L1286.67 239.25zM1286.67 291.25L1331.7 317.25L1331.7 369.25L1286.67 395.25L1241.63 369.25L1241.63 317.25zM1331.7 525.25L1376.74 551.25L1376.74 603.25L1331.7 629.25L1286.67 603.25L1286.67 551.25zM1376.74 -20.75L1421.77 5.25L1421.77 57.25L1376.74 83.25L1331.7 57.25L1331.7 5.25zM1421.77 57.25L1466.81 83.25L1466.81 135.25L1421.77 161.25L1376.74 135.25L1376.74 83.25zM1376.74 135.25L1421.77 161.25L1421.77 213.25L1376.74 239.25L1331.7 213.25L1331.7 161.25zM1421.77 213.25L1466.81 239.25L1466.81 291.25L1421.77 317.25L1376.74 291.25L1376.74 239.25zM1376.74 291.25L1421.77 317.25L1421.77 369.25L1376.74 395.25L1331.7 369.25L1331.7 317.25zM1421.77 369.25L1466.81 395.25L1466.81 447.25L1421.77 473.25L1376.74 447.25L1376.74 395.25zM1376.74 447.25L1421.77 473.25L1421.77 525.25L1376.74 551.25L1331.7 525.25L1331.7 473.25z" stroke="rgba(209, 91, 255, 1)" stroke-width="2"></path></g><defs><mask id="SvgjsMask1006"><rect width="1440" height="560" fill="#ffffff"></rect></mask></defs></svg>